<!--?xml version="1.0" standalone="no"?-->
              <svg id="sw-js-blob-svg" viewBox="0 0 100 100" xmlns="http://www.w3.org/2000/svg" version="1.1">
                    <defs> 
                        <linearGradient id="sw-gradient" x1="0" x2="1" y1="1" y2="0">
                            <stop id="stop1" stop-color="rgba(55, 185.891, 248, 1)" offset="0%"></stop>
                            <stop id="stop2" stop-color="rgba(31, 251, 217.464, 1)" offset="100%"></stop>
                        </linearGradient>
                    </defs>
                <path fill="url(#sw-gradient)" d="M14.2,-17.5C21.3,-14.4,31.9,-14.1,32.9,-10.8C33.9,-7.4,25.2,-1,20.1,4C14.9,9,13.3,12.5,10.6,14.9C7.8,17.2,3.9,18.3,-2.5,21.8C-8.9,25.2,-17.7,30.9,-20,28.4C-22.3,25.9,-18.1,15.2,-15.1,8.6C-12.1,2,-10.5,-0.4,-12.9,-7.7C-15.4,-15,-22,-27.2,-20.5,-32.2C-19.1,-37.1,-9.5,-34.9,-3,-30.7C3.5,-26.6,7.1,-20.6,14.2,-17.5Z" width="100%" height="100%" transform="translate(50 50)" stroke-width="0" style="transition: all 0.3s ease 0s;" stroke="url(#sw-gradient)"></path>
              </svg>